<?xml version="1.0" encoding="UTF-8"?><svg viewBox="-6 419 1093 243" id="a" xmlns="http://www.w3.org/2000/svg"><path d="M47.95,632.03c-.09.09-.21.12-.37.12h-26.78c-.17,0-.29-.04-.37-.12-.09-.08-.12-.21-.12-.37v-182.76c0-.16.04-.29.12-.37.08-.08.21-.12.37-.12h26.78c.16,0,.29.04.37.12.08.09.12.21.12.37v182.76c0,.17-.04.29-.12.37ZM110.44,448.4h34.59c.16,0,.25.04.25.12v.37l-108.12,128.7-11.9-26.78,85.06-102.17c0-.16.04-.25.12-.25ZM156.19,632.03c0,.09-.09.12-.25.12h-32.11c-.09,0-.12-.08-.12-.25l-74.15-105.89,28.27-6.7,78.36,112.34v.37Z" fill="#010101" stroke-width="0"/><path d="M258.73,544.99c.08.09.12.21.12.37v24.8c0,.17-.04.29-.12.37-.09.09-.21.12-.37.12h-88.28c-.17,0-.29-.04-.37-.12-.09-.08-.12-.21-.12-.37v-24.8c0-.16.04-.29.12-.37s.21-.12.37-.12h88.28c.16,0,.29.04.37.12Z" fill="#010101" stroke-width="0"/><path d="M279.81,581.94c.08-.08.21-.12.37-.12l26.53-3.97c.16,0,.29.04.37.12.08.09.12.21.12.37,2.15,10.58,7.94,18.77,17.36,24.55,9.42,5.79,19.71,7.98,30.87,6.57,11.16-1.4,19.96-6.57,26.41-15.5,3.63-5.12,5.54-10.5,5.7-16.12.16-5.62-1.41-10.66-4.71-15.13-3.31-4.46-8.1-7.6-14.38-9.42-3.97-1.32-11.66-2.73-23.06-4.22-2.32-.33-7.85-1.15-16.61-2.48-12.07-2.15-21.78-8.02-29.14-17.61-7.36-9.59-11-20.46-10.91-32.61.08-12.15,4.25-22.69,12.52-31.62,9.42-10.74,21.45-17.07,36.08-18.97,14.63-1.9,28.6.66,41.91,7.69,13.31,7.03,22.94,17.65,28.89,31.87.16.17.21.29.12.37-.09.09-.21.21-.37.37l-24.55,9.67c-.17.17-.29.21-.37.12-.09-.08-.21-.21-.37-.37-3.97-8.76-9.63-15.29-16.99-19.59-7.36-4.3-15-5.91-22.94-4.84-7.94,1.08-14.8,4.92-20.58,11.53-4.13,4.46-6.28,9.55-6.45,15.25-.17,5.7,1.57,10.83,5.21,15.37,3.63,4.55,8.59,7.48,14.88,8.8,2.15.5,4.59.95,7.32,1.36,2.73.41,5.66.79,8.8,1.12,10.91,1.16,19.67,2.73,26.29,4.71,12.56,4.13,22.07,10.66,28.52,19.59,6.45,8.93,9.55,18.85,9.3,29.76-.25,10.91-3.84,21.16-10.79,30.75-10.09,14.22-24.59,22.49-43.52,24.8-18.93,2.31-36.54-1.36-52.82-11.03-16.29-9.67-26-23.27-29.14-40.79,0-.16.04-.29.12-.37Z" fill="#010101" stroke-width="0"/><path d="M471.74,632.03c-.09.09-.21.12-.37.12h-26.78c-.17,0-.29-.04-.37-.12-.09-.08-.12-.21-.12-.37v-182.76c0-.16.04-.29.12-.37.08-.08.21-.12.37-.12h26.78c.16,0,.29.04.37.12.08.09.12.21.12.37v182.76c0,.17-.04.29-.12.37Z" fill="#010101" stroke-width="0"/><path d="M510.18,632.03c-.09-.08-.12-.21-.12-.37v-182.76c0-.16.04-.29.12-.37.08-.08.21-.12.37-.12h26.78c.16,0,.29.04.37.12.08.09.12.21.12.37v183.26h-27.28c-.17,0-.29-.04-.37-.12ZM619.29,605.25c.08.09.12.21.12.37v26.04c0,.17-.04.29-.12.37s-.21.12-.37.12h-91.26v-27.03h91.26c.16,0,.29.04.37.12Z" fill="#010101" stroke-width="0"/><path d="M739.93,448.4h29.01c.16,0,.29.04.37.12.08.09.12.21.12.37l-72.16,182.76c0,.33-.25.5-.74.5h-26.04c-.5,0-.74-.16-.74-.5l-72.16-182.76v-.37c0-.08.08-.12.25-.12h29.26c.5,0,.74.17.74.5l55.55,143.58,55.8-143.58c0-.33.25-.5.74-.5Z" fill="#010101" stroke-width="0"/><path d="M789.16,632.03c-.08-.08-.12-.21-.12-.37v-182.76c0-.16.04-.29.12-.37.08-.08.21-.12.37-.12h27.28v183.75h-27.28c-.17,0-.29-.04-.37-.12ZM899.26,448.53c.08.09.12.21.12.37v26.04c0,.17-.04.29-.12.37-.09.09-.21.12-.37.12h-95.72v-27.03h95.72c.16,0,.29.04.37.12ZM891.08,527.88c.08.09.12.21.12.37v23.81c0,.17-.04.29-.12.37-.09.09-.21.12-.37.12h-87.54v-24.8h87.54c.16,0,.29.04.37.12ZM899.26,605.25c.08.09.12.21.12.37v26.04c0,.17-.04.29-.12.37s-.21.12-.37.12h-95.72v-27.03h95.72c.16,0,.29.04.37.12Z" fill="#010101" stroke-width="0"/><path d="M959.77,632.03c-.09.09-.21.12-.37.12h-26.78c-.17,0-.29-.04-.37-.12-.08-.08-.12-.21-.12-.37v-182.76c0-.16.04-.29.12-.37.08-.08.21-.12.37-.12h27.28v183.26c0,.17-.04.29-.12.37ZM946.25,531.23h46.12c6.28,0,11.74-1.24,16.37-3.72,4.63-2.48,8.18-5.87,10.66-10.17,2.48-4.3,3.72-9.09,3.72-14.38s-1.24-9.8-3.72-14.01c-2.48-4.22-6.04-7.52-10.66-9.92-4.63-2.39-10.09-3.6-16.37-3.6h-41.66v-27.03h41.66c10.91,0,20.87,2.6,29.88,7.81,9.01,5.21,16.03,12.03,21.08,20.46,5.04,8.43,7.56,17.2,7.56,26.29s-2.52,17.9-7.56,26.41c-5.04,8.52-12.07,15.46-21.08,20.83-9.01,5.37-18.97,8.06-29.88,8.06h-46.12v-27.03ZM1009.24,543.87l50.34,87.79c.16.17.16.29,0,.37-.17.09-.33.12-.5.12h-31.25c-.17,0-.25-.08-.25-.25l-46.37-88.03h28.02Z" fill="#010101" stroke-width="0"/></svg>